<svg width="438" height="70" viewBox="0 0 438 70" fill="none" xmlns="http://www.w3.org/2000/svg">
<path d="M147.677 48.5635C146.743 48.5635 145.844 48.4916 144.982 48.3478C144.155 48.24 143.418 48.0423 142.771 47.7548C141.837 47.3235 140.848 46.6765 139.806 45.8139C138.764 44.9154 138.045 43.9629 137.649 42.9565C137.326 42.0939 137.164 41.3212 137.164 40.6383C137.164 39.3803 137.524 38.302 138.242 37.4035C138.997 36.469 139.896 35.6962 140.938 35.0852C142.016 34.4383 143.005 33.9351 143.903 33.5757C144.119 33.5038 144.281 33.4678 144.389 33.4678C144.676 33.4678 144.82 33.5757 144.82 33.7913C144.82 34.0429 144.676 34.2226 144.389 34.3304C143.526 34.6899 142.681 35.3009 141.855 36.1635C141.028 37.0261 140.345 37.9965 139.806 39.0748C139.303 40.1171 139.051 41.1414 139.051 42.1478C139.051 43.3339 139.518 44.3583 140.453 45.2209C141.387 46.0475 143.005 46.4609 145.305 46.4609C147.066 46.4609 148.971 46.1554 151.02 45.5443C153.105 44.9333 154.956 44.2864 156.573 43.6035C157.076 43.3878 157.795 43.0464 158.729 42.5791C159.7 42.1119 160.724 41.5548 161.802 40.9078C162.917 40.2609 163.959 39.578 164.929 38.8591C165.936 38.1043 166.745 37.3855 167.356 36.7026C168.002 35.9838 168.326 35.3368 168.326 34.7617C168.326 34.1867 168.002 33.7554 167.356 33.4678C166.709 33.1443 165.9 32.9287 164.929 32.8209C163.959 32.6771 162.971 32.6052 161.964 32.6052C161.138 32.6052 160.365 32.6412 159.646 32.713C158.963 32.7849 158.442 32.8568 158.082 32.9287C157.507 33.0725 156.878 33.3959 156.196 33.8991C155.513 34.3664 154.866 34.6 154.255 34.6C153.823 34.6 153.464 34.4383 153.176 34.1148C152.889 33.7913 152.745 33.4499 152.745 33.0904C152.745 32.731 152.871 32.3896 153.122 32.0661C153.41 31.7426 153.895 31.527 154.578 31.4191C155.261 31.3113 156.052 31.2574 156.95 31.2574C157.885 31.2214 158.694 31.0777 159.376 30.8261C160.778 30.3229 162.18 29.7299 163.582 29.047C165.019 28.3641 166.349 27.5554 167.571 26.6209C168.793 25.6504 169.8 24.5183 170.59 23.2243C171.022 22.5414 171.237 21.8585 171.237 21.1757C171.237 20.0255 170.554 19.1809 169.189 18.6417C167.823 18.0667 166.151 17.7072 164.175 17.5635C163.923 17.7791 163.689 17.9948 163.474 18.2104C163.258 18.3901 163.06 18.5699 162.881 18.7496C161.946 19.6841 160.832 20.8522 159.538 22.2539C158.244 23.6557 156.896 25.1832 155.495 26.8365C154.093 28.4539 152.799 30.1432 151.613 31.9043C150.427 33.6296 149.456 35.3188 148.702 36.9722C147.947 38.6255 147.569 40.153 147.569 41.5548C147.569 42.2377 147.677 42.8307 147.893 43.3339C148.109 43.8012 148.612 44.0348 149.402 44.0348V44.4661C149.187 44.5739 148.953 44.6278 148.702 44.6278C148.091 44.6278 147.551 44.3942 147.084 43.927C146.617 43.4238 146.258 42.8487 146.006 42.2017C145.754 41.5188 145.629 40.9258 145.629 40.4226C145.629 39.2365 145.934 37.8707 146.545 36.3252C147.156 34.7438 147.965 33.0904 148.971 31.3652C149.978 29.64 151.074 27.9328 152.26 26.2435C153.482 24.5183 154.704 22.9009 155.926 21.3913C157.148 19.8817 158.262 18.5699 159.269 17.4556C157.04 17.4916 154.956 17.6174 153.015 17.833C151.074 18.0128 149.69 18.1565 148.863 18.2643C147.318 18.4441 145.736 18.7496 144.119 19.1809C142.502 19.6122 140.992 20.1333 139.59 20.7443C138.225 21.3194 137.11 21.9484 136.248 22.6313C135.421 23.2783 135.008 23.9252 135.008 24.5722C135.008 24.7519 135.116 24.9136 135.331 25.0574C135.547 25.2012 135.78 25.273 136.032 25.273C136.14 25.3809 136.194 25.4707 136.194 25.5426C136.194 25.7223 135.996 25.7762 135.601 25.7043C135.205 25.6325 134.702 25.3988 134.091 25.0035C133.516 24.5722 132.995 24.069 132.528 23.4939C132.096 22.9188 131.881 22.4157 131.881 21.9843C131.881 21.2655 132.294 20.6006 133.121 19.9896C133.983 19.3426 135.116 18.7675 136.517 18.2643C137.955 17.7252 139.554 17.2759 141.316 16.9165C143.077 16.5212 144.874 16.2157 146.707 16C148.001 15.8203 149.474 15.6945 151.128 15.6226C152.781 15.5148 154.488 15.4609 156.249 15.4609C157.867 15.4609 159.448 15.5148 160.994 15.6226L161.156 15.4609C160.94 15.2452 160.832 14.9936 160.832 14.7061C160.832 14.2388 161.066 13.7896 161.533 13.3583C162.036 12.891 162.575 12.4777 163.15 12.1183C163.725 11.7229 164.175 11.3994 164.498 11.1478C164.822 11.1478 165.271 11.2377 165.846 11.4174C166.421 11.5612 166.924 11.7768 167.356 12.0643C167.823 12.3519 168.056 12.7113 168.056 13.1426C168.056 13.3223 168.02 13.52 167.949 13.7356C167.805 14.0591 167.517 14.4365 167.086 14.8678C166.691 15.2991 166.223 15.7484 165.684 16.2156C166.619 16.3954 167.481 16.629 168.272 16.9165C169.099 17.1681 169.818 17.4916 170.429 17.887C171.291 18.3901 171.794 18.8574 171.938 19.2887C172.118 19.72 172.19 20.0794 172.154 20.367C172.118 20.6545 172.19 20.8162 172.369 20.8522C172.98 21.8585 173.286 22.847 173.286 23.8174C173.286 24.9675 172.873 25.9919 172.046 26.8904C171.255 27.753 170.249 28.4719 169.027 29.047C167.841 29.622 166.619 30.0713 165.361 30.3948C164.103 30.7183 163.025 30.9159 162.126 30.9878C161.982 30.9878 161.91 31.0417 161.91 31.1496C161.91 31.2574 162.072 31.3113 162.396 31.3113C163.294 31.3113 164.3 31.4012 165.415 31.5809C166.529 31.7606 167.499 32.102 168.326 32.6052C169.189 33.0725 169.638 33.7733 169.674 34.7078C169.638 34.8516 169.728 35.0313 169.943 35.247C170.195 35.4267 170.429 35.6603 170.644 35.9478C170.896 36.2354 171.022 36.5948 171.022 37.0261C171.022 37.3136 170.914 37.6551 170.698 38.0504C169.692 39.7038 168.236 41.2852 166.331 42.7948C164.426 44.2684 162.144 45.4904 159.484 46.4609C158.586 46.7843 157.471 47.1078 156.142 47.4313C154.812 47.7548 153.41 48.0243 151.936 48.24C150.499 48.4557 149.079 48.5635 147.677 48.5635ZM175.492 47.8087C174.306 47.8087 173.317 47.3954 172.527 46.5687C171.772 45.742 171.394 44.6458 171.394 43.28C171.394 42.1299 171.664 40.9797 172.203 39.8296C172.742 38.6435 173.335 37.6191 173.982 36.7565C174.953 35.4986 176.067 34.4383 177.325 33.5757C178.619 32.713 179.823 32.2817 180.937 32.2817C181.332 32.2817 181.692 32.5154 182.015 32.9826C182.375 33.4139 182.842 33.6655 183.417 33.7374C183.561 33.7733 183.705 33.8272 183.848 33.8991C184.028 33.9351 184.208 34.0968 184.387 34.3843C184.855 35.1751 185.088 36.0197 185.088 36.9183C185.088 38.2481 184.657 39.6858 183.794 41.2313C182.968 42.7768 181.871 44.1606 180.506 45.3826C179.823 45.9936 179.05 46.5507 178.187 47.0539C177.325 47.5571 176.426 47.8087 175.492 47.8087ZM175.6 46.7304C176.462 46.7304 177.379 46.389 178.349 45.7061C179.32 44.9872 180.218 44.1067 181.045 43.0643C181.907 41.9861 182.59 40.8899 183.094 39.7757C183.633 38.6255 183.902 37.6191 183.902 36.7565C183.902 36.0736 183.74 35.5704 183.417 35.247C183.094 34.8875 182.68 34.7078 182.177 34.7078C181.278 34.7078 180.362 35.1571 179.427 36.0557C178.493 36.9542 177.576 37.9786 176.678 39.1287C175.887 40.1351 175.186 41.1774 174.575 42.2557C174 43.3339 173.713 44.2684 173.713 45.0591C173.713 45.6342 173.91 46.0655 174.306 46.353C174.701 46.6046 175.132 46.7304 175.6 46.7304ZM194.828 47.647C194.037 47.647 193.372 47.4133 192.833 46.9461C192.33 46.4788 192.078 45.742 192.078 44.7357C192.078 43.873 192.222 43.0104 192.509 42.1478C192.797 41.2493 193.102 40.4406 193.426 39.7217C193.785 39.0029 194.073 38.4638 194.288 38.1043C195.079 36.6307 195.331 35.8939 195.043 35.8939C194.792 35.8939 194.217 36.3612 193.318 37.2957C192.455 38.1942 191.395 39.4701 190.137 41.1235C189.023 42.5612 188.286 43.6933 187.927 44.52C187.567 45.3107 187.334 45.9577 187.226 46.4609C187.19 46.7843 186.92 46.9461 186.417 46.9461C186.022 46.9461 185.626 46.7843 185.231 46.4609C184.836 46.1014 184.638 45.6162 184.638 45.0052C184.638 44.8255 184.8 44.3583 185.123 43.6035C185.447 42.8487 185.824 41.9681 186.255 40.9617C186.723 39.9554 187.172 39.0029 187.603 38.1043C188.035 37.2058 188.358 36.5229 188.574 36.0557C188.142 35.8041 188.053 35.4806 188.304 35.0852L189.868 32.2278C189.975 32.1559 190.299 32.0301 190.838 31.8504C191.413 31.6348 191.934 31.527 192.402 31.527C193.048 31.527 193.372 31.7426 193.372 32.1739C193.372 32.3896 193.228 32.749 192.941 33.2522C192.833 33.4319 192.581 33.8812 192.186 34.6C191.79 35.2829 191.341 36.0916 190.838 37.0261C190.371 37.9246 189.922 38.7872 189.49 39.6139C189.095 40.4046 188.807 40.9977 188.628 41.393C188.628 41.429 188.61 41.4649 188.574 41.5009C188.574 41.5009 188.574 41.5188 188.574 41.5548C188.574 41.6986 188.699 41.5728 188.951 41.1774C189.239 40.782 189.454 40.4945 189.598 40.3148C190.676 38.8412 191.79 37.4754 192.941 36.2174C194.127 34.9594 195.367 33.7194 196.661 32.4974C196.912 32.6412 197.272 32.731 197.739 32.767C198.242 32.8029 198.709 32.8928 199.141 33.0365C199.572 33.1443 199.788 33.4319 199.788 33.8991C199.788 34.618 199.482 35.4267 198.871 36.3252C198.296 37.2238 197.649 38.1403 196.93 39.0748C196.247 39.9733 195.6 41.0516 194.989 42.3096C194.378 43.5675 194.073 44.6278 194.073 45.4904C194.073 46.2093 194.306 46.5687 194.774 46.5687C194.989 46.5687 195.277 46.4609 195.636 46.2452C195.924 46.0655 196.481 45.6162 197.308 44.8974C198.134 44.1426 199.015 43.1003 199.949 41.7704C200.237 41.3391 200.524 41.1235 200.812 41.1235C200.956 41.1235 201.046 41.1954 201.082 41.3391C201.117 41.447 201.099 41.5907 201.028 41.7704C198.512 45.6881 196.445 47.647 194.828 47.647ZM211.343 47.593C210.768 47.593 210.283 47.3954 209.887 47C209.528 46.6406 209.258 46.2093 209.079 45.7061C208.899 45.2029 208.809 44.7716 208.809 44.4122C208.809 43.1901 209.187 41.8962 209.941 40.5304C210.696 39.1646 211.667 37.8887 212.853 36.7026C214.075 35.5165 215.351 34.5461 216.68 33.7913C218.01 33.0365 219.25 32.6591 220.4 32.6591C221.227 32.6591 222.054 33.2162 222.88 34.3304C222.952 34.4383 223.024 34.582 223.096 34.7617C223.204 34.9414 223.258 35.1212 223.258 35.3009C223.258 35.6243 223.132 35.84 222.88 35.9478C222.845 35.9838 222.755 35.8759 222.611 35.6243C222.503 35.3368 222.126 35.193 221.479 35.193C220.868 35.193 220.059 35.4806 219.053 36.0557C218.046 36.6307 216.986 37.3855 215.872 38.32C214.794 39.2545 213.805 40.2609 212.907 41.3391C212.044 42.4174 211.415 43.4597 211.02 44.4661C210.948 44.7177 210.876 44.9693 210.804 45.2209C210.732 45.4725 210.696 45.6881 210.696 45.8678C210.696 46.1913 210.804 46.353 211.02 46.353C211.235 46.353 211.523 46.2272 211.882 45.9757C212.637 45.4365 213.428 44.7716 214.254 43.9809C215.081 43.1542 215.872 42.3096 216.627 41.447C217.417 40.5484 218.082 39.7038 218.621 38.913C219.16 38.1223 219.502 37.4754 219.646 36.9722C219.718 36.6846 220.131 36.5409 220.886 36.5409C221.497 36.5409 222.018 36.6846 222.449 36.9722C222.88 37.2238 222.988 37.5113 222.773 37.8348C222.126 38.8052 221.497 39.8296 220.886 40.9078C220.275 41.9501 219.825 43.0104 219.538 44.0887C219.502 44.2325 219.466 44.3583 219.43 44.4661C219.43 44.5739 219.43 44.6638 219.43 44.7357C219.43 45.0951 219.574 45.2748 219.861 45.2748C220.185 45.2748 220.544 45.113 220.94 44.7896C221.694 44.0707 222.485 43.1542 223.312 42.04C224.174 40.8899 225.055 39.7577 225.954 38.6435C226.277 38.2841 226.493 38.1043 226.6 38.1043C226.708 38.1043 226.762 38.1942 226.762 38.3739C226.762 38.5177 226.726 38.6614 226.654 38.8052C226.511 39.1646 226.313 39.542 226.061 39.9374C225.81 40.2968 225.576 40.6203 225.36 40.9078C225.181 41.1594 224.875 41.6087 224.444 42.2557C224.013 42.9026 223.509 43.5855 222.934 44.3043C222.359 45.0232 221.766 45.6522 221.155 46.1913C220.544 46.6945 219.969 46.9461 219.43 46.9461C218.675 46.9461 218.064 46.7125 217.597 46.2452C217.166 45.742 216.95 45.2928 216.95 44.8974C216.95 44.3942 216.968 44.0528 217.004 43.873C217.076 43.5136 217.184 43.0823 217.327 42.5791C217.507 42.0759 217.669 41.5907 217.813 41.1235C217.525 41.5188 217.094 42.0759 216.519 42.7948C215.944 43.5136 215.315 44.2504 214.632 45.0052C213.985 45.7241 213.356 46.3351 212.745 46.8383C212.134 47.3414 211.667 47.593 211.343 47.593ZM205.064 69.0504C204.309 69.0504 203.482 68.9246 202.584 68.673C201.649 68.4215 201.02 68.1699 200.697 67.9183C200.589 67.8104 200.535 67.7206 200.535 67.6487C200.535 67.5049 200.625 67.3971 200.805 67.3252C200.949 67.2533 201.11 67.2713 201.29 67.3791C201.757 67.6667 202.224 67.8823 202.692 68.0261C203.123 68.1699 203.662 68.2417 204.309 68.2417C205.891 68.2417 207.598 67.5409 209.431 66.1391C211.228 64.7374 213.061 62.9942 214.93 60.9096C216.691 58.8968 218.362 56.7223 219.944 54.3861C221.525 52.0499 222.945 49.7136 224.203 47.3774C225.461 45.0412 226.449 42.9026 227.168 40.9617C227.923 39.0209 228.354 37.4574 228.462 36.2713C228.067 36.8464 227.6 37.5113 227.06 38.2661C226.557 39.0209 226.18 39.5959 225.928 39.9913C225.569 40.4945 225.299 40.9078 225.12 41.2313C224.94 41.5188 224.742 41.8243 224.527 42.1478C224.311 42.4713 223.951 42.9565 223.448 43.6035C223.304 43.7832 223.179 43.873 223.071 43.873C222.927 43.873 222.855 43.6754 222.855 43.28C222.855 43.1003 222.873 42.9206 222.909 42.7409C222.945 42.5252 223.017 42.3455 223.125 42.2017C224.167 40.9078 225.12 39.5241 225.982 38.0504C226.881 36.5409 227.51 35.1751 227.869 33.953C228.121 33.0186 228.282 32.138 228.354 31.3113C228.462 30.4487 228.498 29.8557 228.462 29.5322C228.678 29.4603 228.876 29.4243 229.055 29.4243C229.235 29.4243 229.397 29.4243 229.54 29.4243C230.259 29.4243 230.78 29.6041 231.104 29.9635C231.463 30.3229 231.643 30.7722 231.643 31.3113C231.643 31.7785 231.499 32.3357 231.212 32.9826C230.996 33.4499 230.727 33.8632 230.403 34.2226C230.08 34.582 229.738 34.9235 229.379 35.247C229.451 35.6064 229.504 35.9838 229.54 36.3791C229.576 36.7386 229.594 37.1339 229.594 37.5652C229.594 38.1762 229.558 38.8232 229.487 39.5061C229.415 40.189 229.325 40.8719 229.217 41.5548C229.648 40.6562 230.205 39.6858 230.888 38.6435C231.571 37.5652 232.308 36.5588 233.099 35.6243C233.889 34.6899 234.68 33.9171 235.471 33.3061C236.298 32.6951 237.052 32.3896 237.735 32.3896C238.31 32.3896 238.849 32.5872 239.353 32.9826C239.856 33.342 240.251 33.7733 240.539 34.2765C240.862 34.7797 241.024 35.211 241.024 35.5704C241.024 36.7925 240.647 38.0864 239.892 39.4522C239.137 40.818 238.149 42.0939 236.927 43.28C235.74 44.4661 234.482 45.4365 233.153 46.1913C231.823 46.9461 230.583 47.3235 229.433 47.3235C228.858 47.3235 228.336 47.0359 227.869 46.4609L227.761 46.6765C226.899 48.6174 225.91 50.5762 224.796 52.553C223.682 54.5299 222.532 56.3988 221.346 58.16C220.16 59.9571 218.991 61.5206 217.841 62.8504C215.864 65.1507 213.816 66.7501 211.695 67.6487C209.575 68.5832 207.364 69.0504 205.064 69.0504ZM228.462 44.7896C228.858 44.7896 229.271 44.7177 229.702 44.5739C230.133 44.4301 230.529 44.2684 230.888 44.0887C231.895 43.5136 232.937 42.7588 234.015 41.8243C235.093 40.8539 236.064 39.8116 236.927 38.6974C237.825 37.5832 238.454 36.5229 238.813 35.5165C238.921 35.229 238.975 34.9594 238.975 34.7078C238.975 33.953 238.688 33.5757 238.113 33.5757C237.825 33.5757 237.502 33.7014 237.142 33.953C236.531 34.4203 235.812 35.1032 234.986 36.0017C234.159 36.9003 233.314 37.8707 232.452 38.913C231.625 39.9554 230.87 40.9617 230.187 41.9322C229.504 42.8667 229.001 43.6035 228.678 44.1426C228.642 44.2864 228.606 44.4122 228.57 44.52C228.534 44.6278 228.498 44.7177 228.462 44.7896ZM222.017 69.0504C221.262 69.0504 220.436 68.9246 219.537 68.673C218.603 68.4215 217.974 68.1699 217.65 67.9183C217.542 67.8104 217.488 67.7206 217.488 67.6487C217.488 67.5049 217.578 67.3971 217.758 67.3252C217.902 67.2533 218.063 67.2713 218.243 67.3791C218.71 67.6667 219.178 67.8823 219.645 68.0261C220.076 68.1699 220.615 68.2417 221.262 68.2417C222.844 68.2417 224.551 67.5409 226.384 66.1391C228.181 64.7374 230.014 62.9942 231.883 60.9096C233.644 58.8968 235.316 56.7223 236.897 54.3861C238.478 52.0499 239.898 49.7136 241.156 47.3774C242.414 45.0412 243.403 42.9026 244.121 40.9617C244.876 39.0209 245.307 37.4574 245.415 36.2713C245.02 36.8464 244.553 37.5113 244.014 38.2661C243.51 39.0209 243.133 39.5959 242.881 39.9913C242.522 40.4945 242.252 40.9078 242.073 41.2313C241.893 41.5188 241.695 41.8243 241.48 42.1478C241.264 42.4713 240.905 42.9565 240.401 43.6035C240.258 43.7832 240.132 43.873 240.024 43.873C239.88 43.873 239.808 43.6754 239.808 43.28C239.808 43.1003 239.826 42.9206 239.862 42.7409C239.898 42.5252 239.97 42.3455 240.078 42.2017C241.12 40.9078 242.073 39.5241 242.935 38.0504C243.834 36.5409 244.463 35.1751 244.822 33.953C245.074 33.0186 245.236 32.138 245.307 31.3113C245.415 30.4487 245.451 29.8557 245.415 29.5322C245.631 29.4603 245.829 29.4243 246.008 29.4243C246.188 29.4243 246.35 29.4243 246.494 29.4243C247.212 29.4243 247.734 29.6041 248.057 29.9635C248.416 30.3229 248.596 30.7722 248.596 31.3113C248.596 31.7785 248.452 32.3357 248.165 32.9826C247.949 33.4499 247.68 33.8632 247.356 34.2226C247.033 34.582 246.691 34.9235 246.332 35.247C246.404 35.6064 246.458 35.9838 246.494 36.3791C246.53 36.7386 246.547 37.1339 246.547 37.5652C246.547 38.1762 246.512 38.8232 246.44 39.5061C246.368 40.189 246.278 40.8719 246.17 41.5548C246.601 40.6562 247.158 39.6858 247.841 38.6435C248.524 37.5652 249.261 36.5588 250.052 35.6243C250.843 34.6899 251.633 33.9171 252.424 33.3061C253.251 32.6951 254.005 32.3896 254.688 32.3896C255.263 32.3896 255.803 32.5872 256.306 32.9826C256.809 33.342 257.204 33.7733 257.492 34.2765C257.815 34.7797 257.977 35.211 257.977 35.5704C257.977 36.7925 257.6 38.0864 256.845 39.4522C256.09 40.818 255.102 42.0939 253.88 43.28C252.694 44.4661 251.436 45.4365 250.106 46.1913C248.776 46.9461 247.536 47.3235 246.386 47.3235C245.811 47.3235 245.29 47.0359 244.822 46.4609L244.714 46.6765C243.852 48.6174 242.863 50.5762 241.749 52.553C240.635 54.5299 239.485 56.3988 238.299 58.16C237.113 59.9571 235.945 61.5206 234.794 62.8504C232.818 65.1507 230.769 66.7501 228.648 67.6487C226.528 68.5832 224.317 69.0504 222.017 69.0504ZM245.415 44.7896C245.811 44.7896 246.224 44.7177 246.655 44.5739C247.087 44.4301 247.482 44.2684 247.841 44.0887C248.848 43.5136 249.89 42.7588 250.968 41.8243C252.047 40.8539 253.017 39.8116 253.88 38.6974C254.778 37.5832 255.407 36.5229 255.767 35.5165C255.874 35.229 255.928 34.9594 255.928 34.7078C255.928 33.953 255.641 33.5757 255.066 33.5757C254.778 33.5757 254.455 33.7014 254.095 33.953C253.484 34.4203 252.765 35.1032 251.939 36.0017C251.112 36.9003 250.267 37.8707 249.405 38.913C248.578 39.9554 247.823 40.9617 247.141 41.9322C246.458 42.8667 245.954 43.6035 245.631 44.1426C245.595 44.2864 245.559 44.4122 245.523 44.52C245.487 44.6278 245.451 44.7177 245.415 44.7896ZM262.099 47.7009C261.236 47.7009 260.374 47.4493 259.511 46.9461C258.684 46.407 258.163 45.4725 257.948 44.1426C257.912 43.9988 257.894 43.7652 257.894 43.4417C257.894 42.3635 258.181 41.1954 258.756 39.9374C259.367 38.6435 260.14 37.4214 261.075 36.2713C262.045 35.1212 263.069 34.1867 264.148 33.4678C265.226 32.749 266.25 32.3896 267.221 32.3896C267.436 32.6412 267.778 32.8209 268.245 32.9287C268.748 33.0365 269.215 33.1443 269.647 33.2522C270.15 33.3959 270.509 33.6296 270.725 33.953C270.977 34.2765 271.102 34.6359 271.102 35.0313C271.102 35.4986 270.941 36.0197 270.617 36.5948C270.294 37.1339 269.88 37.6191 269.377 38.0504C268.55 38.6974 267.598 39.3443 266.52 39.9913C265.441 40.6023 264.453 41.2133 263.555 41.8243C262.692 42.3994 262.135 42.9745 261.883 43.5496C261.811 43.7293 261.703 43.8191 261.56 43.8191C261.308 43.8191 261.236 43.6754 261.344 43.3878C261.703 42.3096 262.332 41.393 263.231 40.6383C264.13 39.8835 265.064 39.1826 266.035 38.5357C267.041 37.8528 267.85 37.1339 268.461 36.3791C268.928 35.8759 269.161 35.4087 269.161 34.9774C269.161 34.5101 268.91 34.2765 268.407 34.2765C267.975 34.2765 267.508 34.4562 267.005 34.8157C265.567 35.7861 264.219 37.08 262.961 38.6974C261.703 40.2788 260.859 41.9142 260.428 43.6035C260.32 44.0348 260.266 44.4301 260.266 44.7896C260.266 45.4725 260.446 45.9577 260.805 46.2452C261.164 46.4968 261.596 46.6226 262.099 46.6226C262.53 46.6226 262.979 46.5507 263.447 46.407C263.914 46.2632 264.327 46.0835 264.687 45.8678C265.226 45.5443 265.765 45.131 266.304 44.6278C266.843 44.0887 267.292 43.6035 267.652 43.1722C268.479 42.1299 269.054 41.6087 269.377 41.6087C269.557 41.6087 269.521 41.8603 269.269 42.3635C269.054 42.8667 268.586 43.5675 267.868 44.4661C267.185 45.3287 266.358 46.0835 265.388 46.7304C264.453 47.3774 263.357 47.7009 262.099 47.7009ZM266.304 29.2087H266.196C266.017 29.2087 265.927 29.1009 265.927 28.8852C265.927 28.7055 266.017 28.5617 266.196 28.4539C266.484 28.1664 266.897 27.7171 267.436 27.1061C268.011 26.4591 268.479 25.9559 268.838 25.5965C269.018 25.4168 269.287 25.1293 269.647 24.7339C270.042 24.3026 270.366 23.9432 270.617 23.6557C270.761 23.5838 270.833 23.5478 270.833 23.5478C271.048 23.5119 271.318 23.6736 271.641 24.033C271.965 24.3925 272.127 24.7159 272.127 25.0035C272.127 25.2191 272.037 25.4168 271.857 25.5965C271.498 25.9559 271.21 26.2435 270.995 26.4591C270.779 26.6388 270.383 26.9443 269.808 27.3757C269.413 27.6991 268.928 28.0226 268.353 28.3461C267.814 28.6336 267.131 28.9212 266.304 29.2087ZM272.611 47.7548C271.82 47.7548 271.119 47.4493 270.508 46.8383C269.897 46.2272 269.592 45.2928 269.592 44.0348C269.592 43.1722 269.79 42.1299 270.185 40.9078C270.616 39.6499 271.137 38.3739 271.748 37.08C272.395 35.7501 273.042 34.5101 273.689 33.36C274.372 32.1739 274.947 31.2035 275.415 30.4487H273.15C272.611 30.4487 272.342 30.269 272.342 29.9096C272.342 29.7299 272.413 29.5681 272.557 29.4243C272.701 29.2806 272.863 29.2087 273.042 29.2087H276.223C276.367 28.993 276.583 28.6336 276.87 28.1304C277.194 27.5913 277.517 27.0162 277.841 26.4052C278.2 25.7583 278.488 25.2012 278.703 24.7339C278.955 24.2667 279.081 23.9791 279.081 23.8713C279.081 23.6557 278.991 23.5119 278.811 23.44C278.667 23.3681 278.559 23.2962 278.488 23.2243C278.38 23.0446 278.326 22.9188 278.326 22.847C278.326 22.6672 278.416 22.5414 278.595 22.4696C278.775 22.3617 278.937 22.3078 279.081 22.3078C279.404 22.3078 279.871 22.4696 280.482 22.793C281.129 23.0806 281.74 23.3861 282.315 23.7096C282.926 23.9971 283.304 24.1588 283.448 24.1948C283.304 24.4464 282.998 24.9136 282.531 25.5965C282.064 26.2435 281.597 26.9264 281.129 27.6452C280.662 28.3281 280.321 28.8493 280.105 29.2087L288.623 29.1548C289.27 29.1548 289.594 29.2806 289.594 29.5322C289.594 29.7119 289.432 29.9096 289.108 30.1252C288.785 30.3049 288.462 30.4128 288.138 30.4487C287.383 30.4846 286.413 30.5206 285.227 30.5565C284.077 30.5565 282.98 30.5745 281.938 30.6104C280.932 30.6464 280.249 30.7183 279.889 30.8261C279.422 30.9699 278.883 31.4191 278.272 32.1739C277.697 32.8928 277.086 33.7733 276.439 34.8157C275.828 35.858 275.235 36.9362 274.66 38.0504C274.085 39.1646 273.599 40.189 273.204 41.1235C272.809 42.022 272.557 42.7049 272.449 43.1722C272.377 43.4957 272.324 43.8012 272.288 44.0887C272.252 44.3403 272.234 44.5739 272.234 44.7896C272.234 45.2928 272.324 45.6522 272.503 45.8678C272.719 46.0475 272.953 46.1374 273.204 46.1374C273.671 46.1374 274.085 45.9577 274.444 45.5983C275.091 45.0232 275.9 44.1786 276.87 43.0643C277.877 41.9142 278.793 40.782 279.62 39.6678C280.123 38.949 280.464 38.5896 280.644 38.5896C280.824 38.5896 280.824 38.8232 280.644 39.2904C280.464 39.7577 280.177 40.2968 279.782 40.9078C279.314 41.5907 278.721 42.4713 278.002 43.5496C277.284 44.5919 276.511 45.5264 275.684 46.353C274.75 47.2875 273.725 47.7548 272.611 47.7548ZM289.855 31.9583C289.172 31.8145 288.543 31.4551 287.968 30.88C287.429 30.3049 287.231 29.658 287.375 28.9391C287.447 28.5438 287.591 28.2922 287.807 28.1843C288.022 28.0765 288.418 27.9867 288.993 27.9148C289.64 27.8429 290.071 27.789 290.287 27.753C290.538 27.7171 290.772 27.6812 290.987 27.6452C291.239 27.5733 291.688 27.4835 292.335 27.3757C292.479 27.3397 292.659 27.2499 292.874 27.1061C293.09 26.9623 293.162 27.0522 293.09 27.3757C293.09 27.5194 292.964 27.6991 292.713 27.9148C292.497 28.0945 292.299 28.2203 292.12 28.2922C291.724 28.4719 291.275 28.6875 290.772 28.9391C290.305 29.1907 289.945 29.5322 289.693 29.9635C289.586 30.1791 289.532 30.3768 289.532 30.5565C289.532 31.0597 289.711 31.3472 290.071 31.4191C290.143 31.4191 290.179 31.473 290.179 31.5809C290.179 31.6528 290.143 31.7426 290.071 31.8504C289.999 31.9583 289.927 31.9942 289.855 31.9583ZM283.17 47.7548C281.84 47.7548 280.906 47.3414 280.367 46.5148C279.863 45.6881 279.612 44.7177 279.612 43.6035C279.612 41.9142 279.917 40.5125 280.528 39.3983C280.169 39.2186 280.079 39.0029 280.259 38.7513C280.69 38.1762 281.193 37.4933 281.768 36.7026C282.343 35.9119 282.9 35.193 283.44 34.5461C284.015 33.8991 284.482 33.5217 284.841 33.4139C284.949 33.378 285.093 33.36 285.273 33.36C285.848 33.36 286.369 33.5577 286.836 33.953C287.339 34.3484 287.663 34.6 287.807 34.7078C286.944 35.5704 286.081 36.5588 285.219 37.673C284.392 38.7872 283.691 39.9733 283.116 41.2313C282.541 42.4893 282.253 43.7652 282.253 45.0591C282.253 45.5264 282.343 45.8678 282.523 46.0835C282.703 46.2632 282.918 46.353 283.17 46.353C283.709 46.353 284.266 46.1014 284.841 45.5983C285.488 45.0232 286.297 44.1786 287.267 43.0643C288.274 41.9142 289.19 40.782 290.017 39.6678C290.52 38.949 290.862 38.5896 291.041 38.5896C291.221 38.5896 291.221 38.8232 291.041 39.2904C290.898 39.7577 290.628 40.2968 290.233 40.9078C289.729 41.5907 289.118 42.4713 288.4 43.5496C287.681 44.5919 286.908 45.5264 286.081 46.353C285.614 46.8203 285.111 47.1617 284.572 47.3774C284.069 47.629 283.601 47.7548 283.17 47.7548ZM292.407 47.7548C291.617 47.7548 290.916 47.4493 290.305 46.8383C289.694 46.2272 289.388 45.2928 289.388 44.0348C289.388 43.1722 289.586 42.1299 289.981 40.9078C290.412 39.6499 290.934 38.3739 291.545 37.08C292.192 35.7501 292.839 34.5101 293.486 33.36C294.168 32.1739 294.743 31.2035 295.211 30.4487H292.946C292.407 30.4487 292.138 30.269 292.138 29.9096C292.138 29.7299 292.21 29.5681 292.353 29.4243C292.497 29.2806 292.659 29.2087 292.839 29.2087H296.019C296.163 28.993 296.379 28.6336 296.666 28.1304C296.99 27.5913 297.313 27.0162 297.637 26.4052C297.996 25.7583 298.284 25.2012 298.499 24.7339C298.751 24.2667 298.877 23.9791 298.877 23.8713C298.877 23.6557 298.787 23.5119 298.607 23.44C298.463 23.3681 298.356 23.2962 298.284 23.2243C298.176 23.0446 298.122 22.9188 298.122 22.847C298.122 22.6672 298.212 22.5414 298.392 22.4696C298.571 22.3617 298.733 22.3078 298.877 22.3078C299.2 22.3078 299.668 22.4696 300.279 22.793C300.926 23.0806 301.537 23.3861 302.112 23.7096C302.723 23.9971 303.1 24.1588 303.244 24.1948C303.1 24.4464 302.795 24.9136 302.327 25.5965C301.86 26.2435 301.393 26.9264 300.926 27.6452C300.458 28.3281 300.117 28.8493 299.901 29.2087L308.419 29.1548C309.066 29.1548 309.39 29.2806 309.39 29.5322C309.39 29.7119 309.228 29.9096 308.905 30.1252C308.581 30.3049 308.258 30.4128 307.934 30.4487C307.179 30.4846 306.209 30.5206 305.023 30.5565C303.873 30.5565 302.777 30.5745 301.734 30.6104C300.728 30.6464 300.045 30.7183 299.686 30.8261C299.218 30.9699 298.679 31.4191 298.068 32.1739C297.493 32.8928 296.882 33.7733 296.235 34.8157C295.624 35.858 295.031 36.9362 294.456 38.0504C293.881 39.1646 293.396 40.189 293 41.1235C292.605 42.022 292.353 42.7049 292.246 43.1722C292.174 43.4957 292.12 43.8012 292.084 44.0887C292.048 44.3403 292.03 44.5739 292.03 44.7896C292.03 45.2928 292.12 45.6522 292.299 45.8678C292.515 46.0475 292.749 46.1374 293 46.1374C293.468 46.1374 293.881 45.9577 294.24 45.5983C294.887 45.0232 295.696 44.1786 296.666 43.0643C297.673 41.9142 298.589 40.782 299.416 39.6678C299.919 38.949 300.261 38.5896 300.44 38.5896C300.62 38.5896 300.62 38.8232 300.44 39.2904C300.261 39.7577 299.973 40.2968 299.578 40.9078C299.11 41.5907 298.517 42.4713 297.799 43.5496C297.08 44.5919 296.307 45.5264 295.48 46.353C294.546 47.2875 293.521 47.7548 292.407 47.7548Z" fill="white"/>
<path d="M105.633 44.6339C106.245 44.8012 111.566 43.9177 114.991 43.2408C116.308 42.9805 117.086 40.5742 117.51 38.7276C117.898 37.0384 117.15 35.9925 116.702 34.4044C116.34 33.1205 115.808 31.6985 114.806 30.6376C113.875 29.6535 112.403 29.1299 110.346 28.4906C106.715 27.362 103.739 27.341 102.651 27.6464C100.732 28.1852 99.8819 29.4562 99.0133 30.9865C97.8967 32.9537 98.0877 35.7532 98.143 37.9244C98.219 40.906 98.5337 41.8962 98.6737 43.2885C98.8927 45.4661 99.5398 46.4144 100.376 47.6134C101.169 48.752 101.941 49.982 103.335 51.6278C105.211 53.8421 108.246 55.9494 110.378 56.7919C111.493 57.2326 112.891 56.9066 114.375 56.4338C115.971 55.926 116.362 54.5103 117.172 53.3406C118.049 52.0758 118.598 50.7752 119.547 48.8266C120.246 47.3887 120.555 45.4806 120.807 42.9806C121.384 37.2461 120.503 35.3331 120.306 33.5125C120.164 32.1947 119.444 30.6409 118.303 28.9726C116.891 26.9085 113.979 24.9547 110.605 23.0604C107.61 21.3786 104.916 21.2632 102.827 21.0959C97.5 20.669 94.6837 21.7619 93.4806 22.5141C92.2091 23.309 90.6627 25.604 89.1771 28.5576C88.829 29.2495 88.8115 29.8411 88.8375 32.5001C88.8635 35.1591 89.0295 39.9082 89.0874 42.4928C89.1627 45.8584 88.8115 47.5222 88.2531 49.2022C87.5187 51.4122 83.6838 52.713 81.7722 53.5288C80.2979 54.158 79.0357 54.1722 77.7185 53.8116C76.65 53.5191 76.2924 51.0062 76.066 48.7981C75.9152 47.3264 75.62 43.6583 75.3131 39.2255C75.2011 37.6067 75.0616 37.2776 74.8109 36.9137C73.5348 35.0608 70.38 33.9308 67.246 33.0347C64.4337 32.2306 62.9919 32.0834 61.2916 32.8038C57.2537 34.5146 56.506 35.2595 55.6122 35.9297C54.5681 36.7126 53.6017 37.378 52.5395 38.188C50.4016 39.818 48.2929 39.8346 47.0621 40.309C45.0175 41.0971 42.0485 40.9524 39.742 40.7583C36.8259 40.5129 35.6028 40.3399 33.3164 40.2554C32.1965 40.214 29.749 40.1157 26.3719 40.0605C22.7915 40.0019 21.3532 39.6706 19.2295 39.5861C16.9374 39.4949 14.3642 39.3359 11.6863 39.3066C9.39 39.2815 6.81855 39.5568 5.81078 39.7526C4.52467 39.8362 3.29723 40.0588 2.20563 40.4211C1.95243 40.5056 1.73109 40.5608 1 40.4504" stroke="white" stroke-width="2" stroke-linecap="round"/>
<path d="M333.6 44.5455C332.999 44.7101 327.774 43.8407 324.411 43.1747C323.117 42.9185 322.353 40.5508 321.937 38.7337C321.556 37.0716 322.291 36.0423 322.73 34.4797C323.086 33.2163 323.608 31.8171 324.593 30.7732C325.506 29.8048 326.952 29.2895 328.972 28.6605C332.538 27.55 335.46 27.5293 336.528 27.8298C338.412 28.36 339.248 29.6106 340.101 31.1165C341.197 33.0522 341.009 35.8069 340.955 37.9434C340.88 40.8772 340.571 41.8516 340.434 43.2216C340.219 45.3644 339.583 46.2975 338.763 47.4773C337.983 48.5977 337.226 49.808 335.856 51.4275C334.014 53.6063 331.034 55.6799 328.941 56.509C327.846 56.9426 326.473 56.6218 325.015 56.1566C323.449 55.6569 323.065 54.2638 322.268 53.1128C321.408 51.8683 320.868 50.5885 319.937 48.6711C319.25 47.2562 318.946 45.3787 318.699 42.9186C318.133 37.2759 318.997 35.3936 319.191 33.602C319.331 32.3054 320.038 30.7765 321.159 29.1348C322.545 27.1038 325.404 25.1812 328.717 23.3173C331.659 21.6623 334.304 21.5488 336.355 21.3841C341.587 20.9641 344.352 22.0395 345.534 22.7796C346.782 23.5619 348.301 25.8201 349.76 28.7264C350.101 29.4073 350.119 29.9894 350.093 32.6058C350.068 35.2223 349.904 39.8954 349.848 42.4386C349.774 45.7504 350.119 47.3875 350.667 49.0407C351.388 51.2153 355.154 52.4953 357.031 53.2981C358.479 53.9172 359.718 53.9312 361.012 53.5763C362.061 53.2885 362.412 50.8158 362.634 48.6431C362.783 47.1949 363.072 43.5855 363.374 39.2236C363.484 37.6308 363.621 37.3069 363.867 36.9488C365.12 35.1256 368.218 34.0137 371.296 33.1319C374.057 32.3407 375.473 32.1958 377.143 32.9047C381.108 34.5882 381.842 35.3211 382.72 35.9806C383.745 36.751 384.694 37.4057 385.737 38.2027C387.837 39.8067 389.907 39.823 391.116 40.2898C393.124 41.0653 396.039 40.9229 398.304 40.7319C401.168 40.4904 402.369 40.3202 404.614 40.2371C405.714 40.1964 408.117 40.0996 411.434 40.0453C414.95 39.9876 416.362 39.6616 418.447 39.5784C420.698 39.4887 423.225 39.3323 425.855 39.3035C428.11 39.2787 430.635 39.5496 431.624 39.7423C432.887 39.8246 434.093 40.0436 435.165 40.4001C435.413 40.4833 435.631 40.5376 436.349 40.4289" stroke="white" stroke-width="2" stroke-linecap="round"/>
</svg>
